<svg xmlns="http://www.w3.org/2000/svg" viewBox="0 0 140 140" width="140" height="140">
  <defs>
    <linearGradient id="bgG" x1="0%" y1="0%" x2="100%" y2="100%">
      <stop offset="0%" style="stop-color:#0D1420"/>
      <stop offset="100%" style="stop-color:#060810"/>
    </linearGradient>
    <linearGradient id="diaG" x1="0%" y1="0%" x2="100%" y2="100%">
      <stop offset="0%" style="stop-color:#EDD898"/>
      <stop offset="100%" style="stop-color:#A87C30"/>
    </linearGradient>
    <linearGradient id="nodeG" x1="0%" y1="0%" x2="100%" y2="100%">
      <stop offset="0%" style="stop-color:#C9A96E"/>
      <stop offset="100%" style="stop-color:#8B6520"/>
    </linearGradient>
    <filter id="glow">
      <feGaussianBlur stdDeviation="1.8" result="blur"/>
      <feMerge><feMergeNode in="blur"/><feMergeNode in="SourceGraphic"/></feMerge>
    </filter>
  </defs>
  <rect width="140" height="140" rx="28" fill="url(#bgG)"/>
  <ellipse cx="70" cy="70" rx="56" ry="20" fill="none" stroke="#C9A96E" stroke-width="0.9" opacity="0.22" transform="rotate(-40 70 70)"/>
  <ellipse cx="70" cy="70" rx="56" ry="20" fill="none" stroke="#C9A96E" stroke-width="0.9" opacity="0.35" transform="rotate(20 70 70)"/>
  <ellipse cx="70" cy="70" rx="56" ry="20" fill="none" stroke="#C9A96E" stroke-width="0.9" opacity="0.15" transform="rotate(80 70 70)"/>
  <polygon points="70,14 116,70 70,122 24,70" fill="none" stroke="url(#diaG)" stroke-width="1.2" opacity="0.5"/>
  <polygon points="70,28 102,70 70,108 38,70" fill="none" stroke="url(#diaG)" stroke-width="1.1" opacity="0.85"/>
  <polygon points="70,44 96,70 70,94 44,70" fill="none" stroke="url(#diaG)" stroke-width="1.8"/>
  <circle cx="70" cy="10" r="4" fill="url(#nodeG)" filter="url(#glow)"/>
  <circle cx="120" cy="88" r="3" fill="url(#nodeG)" opacity="0.6"/>
  <circle cx="20"  cy="88" r="3" fill="url(#nodeG)" opacity="0.6"/>
  <line x1="70" y1="10" x2="70" y2="44"   stroke="#C9A96E" stroke-width="0.6" opacity="0.28"/>
  <line x1="120" y1="88" x2="96" y2="70"  stroke="#C9A96E" stroke-width="0.5" opacity="0.2"/>
  <line x1="20"  y1="88" x2="44" y2="70"  stroke="#C9A96E" stroke-width="0.5" opacity="0.2"/>
  <circle cx="70" cy="70" r="12" fill="none" stroke="#C9A96E" stroke-width="0.8" opacity="0.4"/>
  <circle cx="70" cy="70" r="6.5" fill="url(#diaG)" filter="url(#glow)"/>
  <circle cx="70" cy="70" r="2.8" fill="#060810"/>
</svg>
